<svg xmlns="http://www.w3.org/2000/svg" viewBox="0 0 17 17" height="17" width="17"><title>commercial-11.svg</title><rect fill="none" x="0" y="0" width="17" height="17"></rect><path fill="#17ffdd" transform="translate(3 3)" d="M0,5c-0.0224-1.0854,0.3309-2.1451,1-3h9c0.6691,0.8549,1.0224,1.9146,1,3H0z M2,6v5h4V7h2v4h1V6H2z M5,9H3V7h2V9z" style="stroke-linejoin:round;stroke-miterlimit:4;" stroke="#17ffdd" stroke-width="2"></path><path fill="#121132" transform="translate(3 3)" d="M0,5c-0.0224-1.0854,0.3309-2.1451,1-3h9c0.6691,0.8549,1.0224,1.9146,1,3H0z M2,6v5h4V7h2v4h1V6H2z M5,9H3V7h2V9z"></path></svg>