<svg xmlns="http://www.w3.org/2000/svg" viewBox="0 0 17 17" height="17" width="17"><title>home-11.svg</title><rect fill="none" x="0" y="0" width="17" height="17"></rect><path fill="#17ffdd" transform="translate(3 3)" d="M10,4.75A.25.25,0,0,1,9.75,5H1.25A.25.25,0,0,1,1,4.75a.261.261,0,0,1,.08-.19L5.317,1.106l.016-.016a.248.248,0,0,1,.35.016L8,2.995V1.5a.5.5,0,0,1,1,0V3.81l.92.75A.261.261,0,0,1,10,4.75Zm-8,5a.248.248,0,0,0,.246.25H5V8H6v2H8.752A.248.248,0,0,0,9,9.752H9V6H2Z" style="stroke-linejoin:round;stroke-miterlimit:4;" stroke="#17ffdd" stroke-width="2"></path><path fill="#121132" transform="translate(3 3)" d="M10,4.75A.25.25,0,0,1,9.75,5H1.25A.25.25,0,0,1,1,4.75a.261.261,0,0,1,.08-.19L5.317,1.106l.016-.016a.248.248,0,0,1,.35.016L8,2.995V1.5a.5.5,0,0,1,1,0V3.81l.92.75A.261.261,0,0,1,10,4.75Zm-8,5a.248.248,0,0,0,.246.25H5V8H6v2H8.752A.248.248,0,0,0,9,9.752H9V6H2Z"></path></svg>