<svg xmlns="http://www.w3.org/2000/svg" viewBox="0 0 17 17" height="17" width="17"><title>karaoke-11.svg</title><rect fill="none" x="0" y="0" width="17" height="17"></rect><path fill="#17ffdd" transform="translate(3 3)" d="M4.5,4.4l-2,2l-1,1C1,7.8,0.9,8.5,1.2,9.1l0.6,0.7c0.6,0.4,1.3,0.2,1.7-0.3l1-1l2-2L4.5,4.4z M3.1,8.5L2.5,7.8l2-2l0.7,0.7
	L3.1,8.5z M5,2l1-1h3l1,1v3L9,6H8L5,3V2z" style="stroke-linejoin:round;stroke-miterlimit:4;" stroke="#17ffdd" stroke-width="2"></path><path fill="#121132" transform="translate(3 3)" d="M4.5,4.4l-2,2l-1,1C1,7.8,0.9,8.5,1.2,9.1l0.6,0.7c0.6,0.4,1.3,0.2,1.7-0.3l1-1l2-2L4.5,4.4z M3.1,8.5L2.5,7.8l2-2l0.7,0.7
	L3.1,8.5z M5,2l1-1h3l1,1v3L9,6H8L5,3V2z"></path></svg>