<svg xmlns="http://www.w3.org/2000/svg" viewBox="0 0 17 17" height="17" width="17"><title>ranger-station-11.svg</title><rect fill="none" x="0" y="0" width="17" height="17"></rect><path fill="#17ffdd" transform="translate(3 3)" d="M6.334,0L5,1v3L1,6.0547V10h3V7
	h3v3h3V6.0547L6,4V2.25L6.334,2l1.332,1L9,2V0L7.666,1L6.334,0z" style="stroke-linejoin:round;stroke-miterlimit:4;" stroke="#17ffdd" stroke-width="2"></path><path fill="#121132" transform="translate(3 3)" d="M6.334,0L5,1v3L1,6.0547V10h3V7
	h3v3h3V6.0547L6,4V2.25L6.334,2l1.332,1L9,2V0L7.666,1L6.334,0z"></path></svg>