<svg xmlns="http://www.w3.org/2000/svg" viewBox="0 0 21 21" height="21" width="21"><title>square-15.svg</title><rect fill="none" x="0" y="0" width="21" height="21"></rect><path fill="#17ffdd" transform="translate(3 3)" d="M13,14H2c-0.5523,0-1-0.4477-1-1V2c0-0.5523,0.4477-1,1-1h11c0.5523,0,1,0.4477,1,1v11C14,13.5523,13.5523,14,13,14z" style="stroke-linejoin:round;stroke-miterlimit:4;" stroke="#17ffdd" stroke-width="2"></path><path fill="#121132" transform="translate(3 3)" d="M13,14H2c-0.5523,0-1-0.4477-1-1V2c0-0.5523,0.4477-1,1-1h11c0.5523,0,1,0.4477,1,1v11C14,13.5523,13.5523,14,13,14z"></path></svg>