<?xml version="1.0" encoding="UTF-8" standalone="no"?>
<svg width="56px" height="28px" viewBox="0 0 56 28" version="1.1" xmlns="http://www.w3.org/2000/svg" xmlns:xlink="http://www.w3.org/1999/xlink">
    <!-- Generator: Sketch 40 (33762) - http://www.bohemiancoding.com/sketch -->
    <title>clouds</title>
    <desc>Created with Sketch.</desc>
    <defs></defs>
    <g id="Page-1" stroke="none" stroke-width="1" fill="none" fill-rule="evenodd">
        <g id="clouds" fill="#000000">
            <path d="M56,26 C53.1874975,26 50.5444852,26.7256741 48.2479857,28 L56,28 L56,26 L56,26 Z M30,28 L32,28 L32,27.9999931 L34.0872717,28 C38.7075484,20.7833745 46.7951657,16 56,16 L56,14 C55.3279438,14 54.6614178,14.0236771 54.0012105,14.0702427 L54.0012105,14.0702427 C54.0004057,14.0469276 54,14.0235112 54,14 C54,12.8954305 54.8954305,12 56,12 L56,10 L56,10 C53.9251322,10 52.2192417,11.5797802 52.0195392,13.6021303 L52.0195392,13.6021303 C51.1979625,12.2344614 50.2628817,10.9427413 49.2273257,9.73999874 C50.6437173,7.49290606 53.1475152,6 56,6 L56,4 L56,4 C52.6252806,4 49.6410011,5.67167223 47.8300548,8.23212354 C46.8850663,7.28418123 45.8725487,6.40359656 44.8003294,5.59819676 C47.3545902,2.19877165 51.4205198,7.95807864e-13 56,7.95807864e-13 L48.2479857,8.17124146e-13 L48.2479857,8.17124146e-13 C46.2504688,1.10842056 44.5151126,2.63193362 43.15841,4.45404602 C42.0324558,3.72768171 40.8510523,3.0798788 39.6219507,2.51838838 C40.2514219,1.62213073 40.9525942,0.779890168 41.7171344,8.02913291e-13 L39.0286484,8.10018719e-13 L39.0286484,0 C38.5688004,0.556810615 38.1358258,1.13663438 37.7317107,1.73748519 C36.4379662,1.25790122 35.099135,0.871181957 33.7233127,0.585422926 C33.8421117,0.388564402 33.9634465,0.193408347 34.0872717,8.24229573e-13 L31.8729507,8.24229573e-13 L30,8.10018719e-13 C30,0.0235111938 29.9995943,0.0469276335 29.9987895,0.0702427005 C29.3385822,0.0236771204 28.6720562,8.10018719e-13 28,8.10018719e-13 C27.3279438,8.10018719e-13 26.6614178,0.0236771204 26.0012105,0.0702427006 C26.0004057,0.0469276335 26,0.0235111938 26,8.10018719e-13 L24.1270493,8.10018719e-13 L21.9127283,8.10018719e-13 C22.0365535,0.193408347 22.1578883,0.388564402 22.2766873,0.585422926 C20.900865,0.871181957 19.5620338,1.25790122 18.2682893,1.73748519 C17.8641742,1.13663438 17.4311996,0.556810615 16.9713516,8.10018719e-13 L16.9713516,8.17124146e-13 L14.2828656,8.10018719e-13 C15.0474058,0.779890168 15.7485781,1.62213073 16.3780493,2.51838838 C15.1489477,3.0798788 13.9675442,3.72768171 12.84159,4.45404602 C11.4848874,2.63193362 9.74953115,1.10842056 7.75201435,8.10018719e-13 L7.75201435,8.24229573e-13 L0,8.24229573e-13 C4.57948024,8.24229573e-13 8.64540984,2.19877165 11.1996706,5.59819676 C10.1274513,6.40359656 9.11493373,7.28418123 8.16994522,8.23212354 C6.35899887,5.67167223 3.37471942,4 0,4 L0,6 C2.85248481,6 5.35628273,7.49290606 6.77267434,9.73999874 C5.73711832,10.9427413 4.80203753,12.2344614 3.98046084,13.6021303 C3.78075825,11.5797802 2.07486785,10 0,10 L0,12 C1.1045695,12 2,12.8954305 2,14 C2,14.0235112 1.99959431,14.0469276 1.99878955,14.0702427 C1.33858223,14.0236771 0.672056157,14 0,14 L0,16 C9.20483429,16 17.2924516,20.7833745 21.9127283,28 L24,28 L24,28 L26,28 C26,26.8954305 26.8954305,26 28,26 C29.1045695,26 30,26.8954305 30,28 L30,28 Z M7.75201435,28 C5.45551479,26.7256741 2.81250253,26 0,26 L0,28 L7.75201435,28 L7.75201435,28 L7.75201435,28 Z M56,20 C49.1682522,20 43.0638151,23.1139867 39.0286484,28 L41.7171344,28 C45.3469811,24.2972755 50.4052118,22 56,22 L56,20 L56,20 L56,20 Z M16.9713516,28 C12.9361849,23.1139867 6.83174775,20 0,20 L0,22 C5.59478819,22 10.6530189,24.2972755 14.2828656,28 L16.9713516,28 L16.9713516,28 L16.9713516,28 Z M31.9804608,27.6021303 C32.8020375,26.2344614 33.7371183,24.9427413 34.7726743,23.7399987 L34.7726743,23.7399987 C33.3562827,21.4929061 30.8524848,20 28,20 C25.1475152,20 22.6437173,21.4929061 21.2273257,23.7399987 C22.2628817,24.9427413 23.1979625,26.2344614 24.0195392,27.6021303 C24.2192417,25.5797802 25.9251322,24 28,24 C30.0748678,24 31.7807583,25.5797802 31.9804608,27.6021303 L31.9804608,27.6021303 L31.9804608,27.6021303 Z M46.2682893,15.7374852 C42.3180641,9.86416825 35.6102945,6 28,6 C20.3897055,6 13.6819359,9.86416825 9.7317107,15.7374852 C8.43796621,15.2579012 7.09913503,14.871182 5.72331265,14.5854229 L5.72331265,14.5854229 C10.2748483,7.0432028 18.5484726,2 28,2 C37.4515274,2 45.7251517,7.0432028 50.2766873,14.5854229 C48.900865,14.871182 47.5620338,15.2579012 46.2682893,15.7374852 L46.2682893,15.7374852 L46.2682893,15.7374852 Z M40.84159,18.454046 C41.9675442,17.7276817 43.1489477,17.0798788 44.3780493,16.5183884 C40.7600056,11.3669224 34.7731962,8 28,8 C21.2268038,8 15.2399944,11.3669224 11.6219507,16.5183884 L11.6219507,16.5183884 C12.8510523,17.0798788 14.0324558,17.7276817 15.15841,18.454046 C18.0748826,14.5370925 22.7411564,12 28,12 C33.2588436,12 37.9251174,14.5370925 40.84159,18.454046 L40.84159,18.454046 L40.84159,18.454046 Z M36.1699452,22.2321235 C37.1149337,21.2841812 38.1274513,20.4035966 39.1996706,19.5981968 L39.1996706,19.5981968 C36.6454098,16.1987716 32.5794802,14 28,14 C23.4205198,14 19.3545902,16.1987716 16.8003294,19.5981968 C17.8725487,20.4035966 18.8850663,21.2841812 19.8300548,22.2321235 C21.6410011,19.6716722 24.6252806,18 28,18 C31.3747194,18 34.3589989,19.6716722 36.1699452,22.2321235 L36.1699452,22.2321235 L36.1699452,22.2321235 Z" id="Combined-Shape"></path>
        </g>
    </g>
</svg>