<?xml version="1.0" encoding="utf-8"?>
<!-- Generator: Adobe Illustrator 20.0.0, SVG Export Plug-In . SVG Version: 6.00 Build 0)  -->
<svg version="1.1" id="Layer_1" xmlns="http://www.w3.org/2000/svg" xmlns:xlink="http://www.w3.org/1999/xlink" x="0px" y="0px"
	 width="304px" height="304px" viewBox="0 0 304 304" enable-background="new 0 0 304 304" xml:space="preserve">
<rect x="0" y="0" fill="#121132" width="304" height="304"/>
<title>Artboard 3 Copy 2</title>
<desc>Created with Sketch.</desc>
<g id="Page-1">
	<g id="Artboard-3-Copy-2">
		<path id="Combined-Shape" fill="#080816" d="M44.1,224c0.4633-2.2822,2.481-4,4.9-4c2.7614,0,5,2.2386,5,5s-2.2386,5-5,5
			c-2.419,0-4.4367-1.7178-4.9-4H0v-2H44.1L44.1,224z M204.1,272c0.4633-2.2822,2.481-4,4.9-4c2.7614,0,5,2.2386,5,5s-2.2386,5-5,5
			c-2.419,0-4.4367-1.7178-4.9-4H82v-2H204.1L204.1,272z M261.9,226c-0.4633,2.2822-2.481,4-4.9,4c-2.7614,0-5-2.2386-5-5
			s2.2386-5,5-5c2.4189,0,4.4367,1.7178,4.9,4H304v2H261.9L261.9,226z M261.9,242c-0.4633,2.2822-2.481,4-4.9,4
			c-2.7614,0-5-2.2386-5-5s2.2386-5,5-5c2.4189,0,4.4367,1.7178,4.9,4H304v2H261.9L261.9,242z M268.1,128
			c0.4633-2.2822,2.481-4,4.9-4c2.7614,0,5,2.2386,5,5c0,2.7614-2.2386,5-5,5c-2.4189,0-4.4367-1.7178-4.9-4h-86.2
			c-0.4633,2.2822-2.481,4-4.9,4c-2.7614,0-5-2.2386-5-5c0-2.7614,2.2386-5,5-5c2.419,0,4.4367,1.7178,4.9,4H268.1L268.1,128z
			 M12.1,80c0.4633-2.2822,2.481-4,4.9-4c2.7614,0,5,2.2386,5,5s-2.2386,5-5,5c-2.419,0-4.4367-1.7178-4.9-4H0v-2H12.1L12.1,80z
			 M197.9,114c-0.4633,2.2822-2.481,4-4.9,4c-2.7614,0-5-2.2386-5-5s2.2386-5,5-5c2.419,0,4.4367,1.7178,4.9,4h86.2
			c0.4633-2.2822,2.481-4,4.9-4c2.7614,0,5,2.2386,5,5s-2.2386,5-5,5c-2.4189,0-4.4367-1.7178-4.9-4H197.9L197.9,114z M258,12.1
			c2.2822,0.4633,4,2.481,4,4.9c0,2.7614-2.2386,5-5,5c-2.7614,0-5-2.2386-5-5c0-2.419,1.7178-4.4367,4-4.9V0h2V12.1L258,12.1z
			 M194,220.1c2.2822,0.4633,4,2.481,4,4.9c0,2.7614-2.2386,5-5,5s-5-2.2386-5-5c0-2.419,1.7178-4.4367,4-4.9v-54.2
			c-2.2822-0.4633-4-2.481-4-4.9c0-2.7614,2.2386-5,5-5s5,2.2386,5,5c0,2.419-1.7178,4.4367-4,4.9V220.1L194,220.1z M242,21.9
			c2.2822-0.4633,4-2.481,4-4.9c0-2.7614-2.2386-5-5-5s-5,2.2386-5,5c0,2.419,1.7178,4.4367,4,4.9V81v1h64v-2h-62l0,0V21.9L242,21.9
			z M258,37.9c2.2822-0.4633,4-2.481,4-4.9c0-2.7614-2.2386-5-5-5c-2.7614,0-5,2.2386-5,5c0,2.419,1.7178,4.4367,4,4.9V65v1h48v-2
			h-46l0,0V37.9L258,37.9z M130,133.9c2.2822-0.4633,4-2.481,4-4.9c0-2.7614-2.2386-5-5-5c-2.7614,0-5,2.2386-5,5
			c0,2.419,1.7178,4.4367,4,4.9V209v1h16l0,0v10.1c-2.2822,0.4633-4,2.481-4,4.9c0,2.7614,2.2386,5,5,5s5-2.2386,5-5
			c0-2.419-1.7178-4.4367-4-4.9V208h-1h-15V133.9L130,133.9z M124.1,112c0.4633-2.2822,2.481-4,4.9-4c2.7614,0,5,2.2386,5,5
			s-2.2386,5-5,5c-2.419,0-4.4367-1.7178-4.9-4H114l0,0v48h-1.5H85.9c-0.4633,2.2822-2.481,4-4.9,4c-2.7614,0-5-2.2386-5-5
			s2.2386-5,5-5c2.419,0,4.4367,1.7178,4.9,4H112v-47v-1H124.1L124.1,112z M117.9,242c-0.4633,2.2822-2.481,4-4.9,4
			c-2.7614,0-5-2.2386-5-5s2.2386-5,5-5c2.419,0,4.4367,1.7178,4.9,4H176v-74.1c-2.2822-0.4633-4-2.481-4-4.9c0-2.7614,2.2386-5,5-5
			s5,2.2386,5,5c0,2.419-1.7178,4.4367-4,4.9V242h-1l0,0H117.9L117.9,242z M101.9,178c-0.4633,2.2822-2.481,4-4.9,4
			c-2.7614,0-5-2.2386-5-5s2.2386-5,5-5c2.419,0,4.4367,1.7178,4.9,4H114v1v47l0,0h10.1c0.4633-2.2822,2.481-4,4.9-4
			c2.7614,0,5,2.2386,5,5s-2.2386,5-5,5c-2.419,0-4.4367-1.7178-4.9-4H112v-1v-47H101.9L101.9,178z M66,284.1
			c2.2822,0.4633,4,2.481,4,4.9c0,2.7614-2.2386,5-5,5c-2.7614,0-5-2.2386-5-5c0-2.4189,1.7178-4.4367,4-4.9V274H50v30h-2v-32h1l0,0
			h15.5H66V284.1L66,284.1z M236.1,176c0.4633-2.2822,2.481-4,4.9-4c2.7614,0,5,2.2386,5,5s-2.2386,5-5,5
			c-2.419,0-4.4367-1.7178-4.9-4H226l0,0v94h48v1v31h-2v-30h-48v-1v-96v-1H236.1L236.1,176z M261.9,146
			c-0.4633,2.2822-2.481,4-4.9,4c-2.7614,0-5-2.2386-5-5s2.2386-5,5-5c2.4189,0,4.4367,1.7178,4.9,4H274v1.5l0,0v42.6
			c2.2822,0.4633,4,2.481,4,4.9c0,2.7614-2.2386,5-5,5s-5-2.2386-5-5c0-2.419,1.7178-4.4367,4-4.9V146H261.9L261.9,146z M197.9,242
			c-0.4633,2.2822-2.481,4-4.9,4c-2.7614,0-5-2.2386-5-5s2.2386-5,5-5c2.419,0,4.4367,1.7178,4.9,4H208l0,0v-80h1h15v-14h-42.1
			c-0.4633,2.2822-2.481,4-4.9,4c-2.7614,0-5-2.2386-5-5s2.2386-5,5-5c2.419,0,4.4367,1.7178,4.9,4H226v1v17h-1h-15v79v1H197.9
			L197.9,242z M284.1,32c0.4633-2.2822,2.481-4,4.9-4c2.7614,0,5,2.2386,5,5s-2.2386,5-5,5c-2.4189,0-4.4367-1.7178-4.9-4H272v-1V0
			h2v32l0,0H284.1L284.1,32z M98,101.9c2.2822-0.4633,4-2.481,4-4.9c0-2.7614-2.2386-5-5-5s-5,2.2386-5,5
			c0,2.419,1.7178,4.4367,4,4.9V144H53.9c-0.4633-2.2822-2.481-4-4.9-4c-2.7614,0-5,2.2386-5,5s2.2386,5,5,5
			c2.419,0,4.4367-1.7178,4.9-4h42.6l0,0H98V101.9L98,101.9z M53.9,34c-0.4633,2.2822-2.481,4-4.9,4c-2.7614,0-5-2.2386-5-5
			s2.2386-5,5-5c2.419,0,4.4367,1.7178,4.9,4H80V0h2v34h-1l0,0H53.9L53.9,34z M114,37.9c2.2822-0.4633,4-2.481,4-4.9
			c0-2.7614-2.2386-5-5-5s-5,2.2386-5,5c0,2.419,1.7178,4.4367,4,4.9V64H80v1v63H69.9c-0.4633-2.2822-2.481-4-4.9-4
			c-2.7614,0-5,2.2386-5,5c0,2.7614,2.2386,5,5,5c2.419,0,4.4367-1.7178,4.9-4H82v-1.5V66l0,0h31h1V37.9L114,37.9z M101.9,82
			c-0.4633,2.2822-2.481,4-4.9,4c-2.7614,0-5-2.2386-5-5s2.2386-5,5-5c2.419,0,4.4367,1.7178,4.9,4H128V37.9
			c-2.2822-0.4633-4-2.481-4-4.9c0-2.7614,2.2386-5,5-5c2.7614,0,5,2.2386,5,5c0,2.419-1.7178,4.4367-4,4.9V82h-1.5l0,0H101.9
			L101.9,82z M117.9,18c-0.4633,2.2822-2.481,4-4.9,4c-2.7614,0-5-2.2386-5-5s2.2386-5,5-5c2.419,0,4.4367,1.7178,4.9,4H146v1l0,0
			v43.1c2.2822,0.4633,4,2.481,4,4.9c0,2.7614-2.2386,5-5,5s-5-2.2386-5-5c0-2.419,1.7178-4.4367,4-4.9V18H117.9L117.9,18z
			 M220.1,288c0.4633-2.2822,2.481-4,4.9-4c2.7614,0,5,2.2386,5,5s-2.2386,5-5,5c-2.419,0-4.4367-1.7178-4.9-4H98v14h-2v-16h1H220.1
			L220.1,288z M242,149.9c2.2822-0.4633,4-2.481,4-4.9c0-2.7614-2.2386-5-5-5s-5,2.2386-5,5c0,2.419,1.7178,4.4367,4,4.9V162h1.5
			H256v30h-14.5H240v65v1h48v46h2v-47v-1h-48l0,0v-62h15h1v-34h-1h-15V149.9L242,149.9z M53.9,18c-0.4633,2.2822-2.481,4-4.9,4
			c-2.7614,0-5-2.2386-5-5s2.2386-5,5-5c2.419,0,4.4367,1.7178,4.9,4H64V2H48V0h16.5l0,0H66v18h-1H53.9L53.9,18z M165.9,50
			c-0.4633,2.2822-2.481,4-4.9,4c-2.7614,0-5-2.2386-5-5s2.2386-5,5-5c2.419,0,4.4367,1.7178,4.9,4H192V1V0h50v2h-48l0,0v48h-1
			H165.9L165.9,50z M117.9,2c-0.4633,2.2822-2.481,4-4.9,4c-2.7614,0-5-2.2386-5-5c0-0.3425,0.0344-0.6769,0.1-1h2.0707
			C110.0602,0.3128,110,0.6494,110,1c0,1.6569,1.3431,3,3,3s3-1.3431,3-3c0-0.3506-0.0602-0.6872-0.1707-1l1.6207,0h59.05l0,0h1.5
			v34h-1h-17v-1V21.9c-2.2822-0.4633-4-2.481-4-4.9c0-2.7614,2.2386-5,5-5s5,2.2386,5,5c0,2.419-1.7178,4.4367-4,4.9V32h14V2H117.9
			L117.9,2z M117.9,98c-0.4633,2.2822-2.481,4-4.9,4c-2.7614,0-5-2.2386-5-5s2.2386-5,5-5c2.419,0,4.4367,1.7178,4.9,4H137l32-32
			h1.4142l0,0H208V21.9c-2.2822-0.4633-4-2.481-4-4.9c0-2.7614,2.2386-5,5-5s5,2.2386,5,5c0,2.419-1.7178,4.4367-4,4.9V66h-1
			h-39.1716l-32,32H136H117.9L117.9,98z M146,188.1c2.2822,0.4633,4,2.481,4,4.9c0,2.7614-2.2386,5-5,5s-5-2.2386-5-5
			c0-2.419,1.7178-4.4367,4-4.9v-74.8929v-1.6213L175.5858,80h1.6213l0,0H224V21.9c-2.2822-0.4633-4-2.481-4-4.9
			c0-2.7614,2.2386-5,5-5s5,2.2386,5,5c0,2.419-1.7178,4.4367-4,4.9V82h-1h-48.5858L146,112.4142V188.1L146,188.1z M162,220.1
			c2.2822,0.4633,4,2.481,4,4.9c0,2.7614-2.2386,5-5,5s-5-2.2386-5-5c0-2.419,1.7178-4.4367,4-4.9v-97.8929v-1.6213L184.5858,96
			h1.6213H300.1c0.3977-1.9591,1.9409-3.5023,3.9-3.9v2.0707c-1.1652,0.4118-2,1.5231-2,2.8293s0.8348,2.4175,2,2.8293V101.9
			c-1.9591-0.3977-3.5023-1.9408-3.9-3.9H185.4142l0,0L162,121.4142V220.1L162,220.1z M18,156.1c2.2822,0.4633,4,2.481,4,4.9
			c0,2.7614-2.2386,5-5,5s-5-2.2386-5-5c0-2.419,1.7178-4.4367,4-4.9v-1.8929v-1.6213l48-48l0,0V48h1h31V0h2v48.5V50H66v53.7929
			v1.6213l-48,48V156.1L18,156.1z M50,53.9c2.2822-0.4633,4-2.481,4-4.9c0-2.7614-2.2386-5-5-5s-5,2.2386-5,5
			c0,2.419,1.7178,4.4367,4,4.9v42.6858l-48,48l0,0v1.6213V209v1h28.1c0.4633,2.2822,2.481,4,4.9,4c2.7614,0,5-2.2386,5-5
			s-2.2386-5-5-5c-2.419,0-4.4367,1.7178-4.9,4H2v-62.5858l0,0l48-48v-1.6213V53.9L50,53.9z M34,69.9c2.2822-0.4633,4-2.481,4-4.9
			c0-2.7614-2.2386-5-5-5s-5,2.2386-5,5c0,2.419,1.7178,4.4367,4,4.9v18.6858l-32,32l0,0v2.8284l34-34v-1.6213l0,0V69.9L34,69.9z
			 M12.1,32c0.4633-2.2822,2.481-4,4.9-4c2.7614,0,5,2.2386,5,5s-2.2386,5-5,5c-2.419,0-4.4367-1.7178-4.9-4H9.4142L0,43.4142
			v-2.8284l0,0L8.5858,32h1.6213l0,0H12.1L12.1,32z M277.9,50c-0.4633,2.2822-2.481,4-4.9,4c-2.7614,0-5-2.2386-5-5s2.2386-5,5-5
			c2.4189,0,4.4367,1.7178,4.9,4h18.6858l0,0L304,40.5858v2.8284L297.4142,50h-1.6213H277.9L277.9,50z M261.9,210
			c-0.4633,2.2822-2.481,4-4.9,4c-2.7614,0-5-2.2386-5-5s2.2386-5,5-5c2.4189,0,4.4367,1.7178,4.9,4H288v-69.7929v-1.6213l16-16
			v2.8284l-14,14l0,0V210h-1H261.9L261.9,210z M53.9,242c-0.4633,2.2822-2.481,4-4.9,4c-2.7614,0-5-2.2386-5-5s2.2386-5,5-5
			c2.419,0,4.4367,1.7178,4.9,4H64v-22.5858L40.5858,194H21.9c-0.4633,2.2822-2.481,4-4.9,4c-2.7614,0-5-2.2386-5-5s2.2386-5,5-5
			c2.419,0,4.4367,1.7178,4.9,4h17.8929h1.6213L66,216.5858l0,0v1.6213l0,0V242h-1H53.9L53.9,242z M204.1,256
			c0.4633-2.2822,2.481-4,4.9-4c2.7614,0,5,2.2386,5,5c0,2.7614-2.2386,5-5,5c-2.419,0-4.4367-1.7178-4.9-4H96v-1.5v-55.0981
			L56.5981,162H37.9c-0.4633,2.2822-2.481,4-4.9,4c-2.7614,0-5-2.2386-5-5s2.2386-5,5-5c2.419,0,4.4367,1.7178,4.9,4h17.8991h1.6028
			L98,200.5981l0,0v1.2009l0,0V256H204.1L204.1,256z M53.9,258c-0.4633,2.2822-2.481,4-4.9,4c-2.7614,0-5-2.2386-5-5
			c0-2.7614,2.2386-5,5-5c2.419,0,4.4367,1.7178,4.9,4H80v-46.5858L48.5858,178H21.9c-0.4633,2.2822-2.481,4-4.9,4
			c-2.7614,0-5-2.2386-5-5s2.2386-5,5-5c2.419,0,4.4367,1.7178,4.9,4h25.8929h1.6213L82,208.5858l0,0v1.6213l0,0V258h-1H53.9
			L53.9,258z M97,100c1.6569,0,3-1.3431,3-3s-1.3431-3-3-3s-3,1.3431-3,3S95.3431,100,97,100L97,100z M97,84c1.6569,0,3-1.3431,3-3
			s-1.3431-3-3-3s-3,1.3431-3,3S95.3431,84,97,84L97,84z M113,100c1.6569,0,3-1.3431,3-3s-1.3431-3-3-3s-3,1.3431-3,3
			S111.3431,100,113,100L113,100z M129,116c1.6569,0,3-1.3431,3-3s-1.3431-3-3-3c-1.6569,0-3,1.3431-3,3S127.3431,116,129,116
			L129,116z M129,132c1.6569,0,3-1.3431,3-3c0-1.6569-1.3431-3-3-3c-1.6569,0-3,1.3431-3,3C126,130.6569,127.3431,132,129,132
			L129,132z M81,164c1.6569,0,3-1.3431,3-3s-1.3431-3-3-3s-3,1.3431-3,3S79.3431,164,81,164L81,164z M97,180c1.6569,0,3-1.3431,3-3
			s-1.3431-3-3-3s-3,1.3431-3,3S95.3431,180,97,180L97,180z M129,228c1.6569,0,3-1.3431,3-3s-1.3431-3-3-3c-1.6569,0-3,1.3431-3,3
			S127.3431,228,129,228L129,228z M113,244c1.6569,0,3-1.3431,3-3s-1.3431-3-3-3s-3,1.3431-3,3S111.3431,244,113,244L113,244z
			 M145,228c1.6569,0,3-1.3431,3-3s-1.3431-3-3-3s-3,1.3431-3,3S143.3431,228,145,228L145,228z M145,196c1.6569,0,3-1.3431,3-3
			s-1.3431-3-3-3s-3,1.3431-3,3S143.3431,196,145,196L145,196z M161,228c1.6569,0,3-1.3431,3-3s-1.3431-3-3-3s-3,1.3431-3,3
			S159.3431,228,161,228L161,228z M193,244c1.6569,0,3-1.3431,3-3s-1.3431-3-3-3s-3,1.3431-3,3S191.3431,244,193,244L193,244z
			 M193,228c1.6569,0,3-1.3431,3-3s-1.3431-3-3-3s-3,1.3431-3,3S191.3431,228,193,228L193,228z M177,164c1.6569,0,3-1.3431,3-3
			s-1.3431-3-3-3s-3,1.3431-3,3S175.3431,164,177,164L177,164z M193,164c1.6569,0,3-1.3431,3-3s-1.3431-3-3-3s-3,1.3431-3,3
			S191.3431,164,193,164L193,164z M209,260c1.6569,0,3-1.3431,3-3s-1.3431-3-3-3s-3,1.3431-3,3S207.3431,260,209,260L209,260z
			 M209,276c1.6569,0,3-1.3431,3-3s-1.3431-3-3-3s-3,1.3431-3,3S207.3431,276,209,276L209,276z M225,292c1.6569,0,3-1.3431,3-3
			s-1.3431-3-3-3s-3,1.3431-3,3S223.3431,292,225,292L225,292z M241,148c1.6569,0,3-1.3431,3-3s-1.3431-3-3-3s-3,1.3431-3,3
			S239.3431,148,241,148L241,148z M241,180c1.6569,0,3-1.3431,3-3s-1.3431-3-3-3s-3,1.3431-3,3S239.3431,180,241,180L241,180z
			 M257,148c1.6569,0,3-1.3431,3-3s-1.3431-3-3-3s-3,1.3431-3,3S255.3431,148,257,148L257,148z M273,132c1.6569,0,3-1.3431,3-3
			c0-1.6569-1.3431-3-3-3s-3,1.3431-3,3C270,130.6569,271.3431,132,273,132L273,132z M177,132c1.6569,0,3-1.3431,3-3
			c0-1.6569-1.3431-3-3-3s-3,1.3431-3,3C174,130.6569,175.3431,132,177,132L177,132z M177,148c1.6569,0,3-1.3431,3-3s-1.3431-3-3-3
			s-3,1.3431-3,3S175.3431,148,177,148L177,148z M193,116c1.6569,0,3-1.3431,3-3s-1.3431-3-3-3s-3,1.3431-3,3S191.3431,116,193,116
			L193,116z M289,116c1.6569,0,3-1.3431,3-3s-1.3431-3-3-3s-3,1.3431-3,3S287.3431,116,289,116L289,116z M273,52
			c1.6569,0,3-1.3431,3-3s-1.3431-3-3-3s-3,1.3431-3,3S271.3431,52,273,52L273,52z M289,36c1.6569,0,3-1.3431,3-3
			c0-1.6569-1.3431-3-3-3s-3,1.3431-3,3C286,34.6569,287.3431,36,289,36L289,36z M257,36c1.6569,0,3-1.3431,3-3
			c0-1.6569-1.3431-3-3-3s-3,1.3431-3,3C254,34.6569,255.3431,36,257,36L257,36z M257,20c1.6569,0,3-1.3431,3-3s-1.3431-3-3-3
			s-3,1.3431-3,3S255.3431,20,257,20L257,20z M241,20c1.6569,0,3-1.3431,3-3s-1.3431-3-3-3s-3,1.3431-3,3S239.3431,20,241,20L241,20
			z M225,20c1.6569,0,3-1.3431,3-3s-1.3431-3-3-3s-3,1.3431-3,3S223.3431,20,225,20L225,20z M209,20c1.6569,0,3-1.3431,3-3
			s-1.3431-3-3-3s-3,1.3431-3,3S207.3431,20,209,20L209,20z M49,36c1.6569,0,3-1.3431,3-3c0-1.6569-1.3431-3-3-3s-3,1.3431-3,3
			C46,34.6569,47.3431,36,49,36L49,36z M17,36c1.6569,0,3-1.3431,3-3c0-1.6569-1.3431-3-3-3s-3,1.3431-3,3
			C14,34.6569,15.3431,36,17,36L17,36z M49,52c1.6569,0,3-1.3431,3-3s-1.3431-3-3-3s-3,1.3431-3,3S47.3431,52,49,52L49,52z M33,68
			c1.6569,0,3-1.3431,3-3s-1.3431-3-3-3c-1.6569,0-3,1.3431-3,3S31.3431,68,33,68L33,68z M49,20c1.6569,0,3-1.3431,3-3
			s-1.3431-3-3-3s-3,1.3431-3,3S47.3431,20,49,20L49,20z M49,260c1.6569,0,3-1.3431,3-3s-1.3431-3-3-3s-3,1.3431-3,3
			S47.3431,260,49,260L49,260z M65,292c1.6569,0,3-1.3431,3-3s-1.3431-3-3-3s-3,1.3431-3,3S63.3431,292,65,292L65,292z M49,228
			c1.6569,0,3-1.3431,3-3s-1.3431-3-3-3s-3,1.3431-3,3S47.3431,228,49,228L49,228z M49,244c1.6569,0,3-1.3431,3-3s-1.3431-3-3-3
			s-3,1.3431-3,3S47.3431,244,49,244L49,244z M33,212c1.6569,0,3-1.3431,3-3s-1.3431-3-3-3c-1.6569,0-3,1.3431-3,3
			S31.3431,212,33,212L33,212z M113,36c1.6569,0,3-1.3431,3-3c0-1.6569-1.3431-3-3-3s-3,1.3431-3,3C110,34.6569,111.3431,36,113,36
			L113,36z M129,36c1.6569,0,3-1.3431,3-3c0-1.6569-1.3431-3-3-3c-1.6569,0-3,1.3431-3,3C126,34.6569,127.3431,36,129,36L129,36z
			 M113,20c1.6569,0,3-1.3431,3-3s-1.3431-3-3-3s-3,1.3431-3,3S111.3431,20,113,20L113,20z M145,68c1.6569,0,3-1.3431,3-3
			s-1.3431-3-3-3s-3,1.3431-3,3S143.3431,68,145,68L145,68z M161,52c1.6569,0,3-1.3431,3-3s-1.3431-3-3-3s-3,1.3431-3,3
			S159.3431,52,161,52L161,52z M161,20c1.6569,0,3-1.3431,3-3s-1.3431-3-3-3s-3,1.3431-3,3S159.3431,20,161,20L161,20z M273,196
			c1.6569,0,3-1.3431,3-3s-1.3431-3-3-3s-3,1.3431-3,3S271.3431,196,273,196L273,196z M257,212c1.6569,0,3-1.3431,3-3s-1.3431-3-3-3
			s-3,1.3431-3,3S255.3431,212,257,212L257,212z M257,228c1.6569,0,3-1.3431,3-3s-1.3431-3-3-3s-3,1.3431-3,3S255.3431,228,257,228
			L257,228z M257,244c1.6569,0,3-1.3431,3-3s-1.3431-3-3-3s-3,1.3431-3,3S255.3431,244,257,244L257,244z M17,180
			c1.6569,0,3-1.3431,3-3s-1.3431-3-3-3s-3,1.3431-3,3S15.3431,180,17,180L17,180z M17,196c1.6569,0,3-1.3431,3-3s-1.3431-3-3-3
			s-3,1.3431-3,3S15.3431,196,17,196L17,196z M17,164c1.6569,0,3-1.3431,3-3s-1.3431-3-3-3s-3,1.3431-3,3S15.3431,164,17,164L17,164
			z M33,164c1.6569,0,3-1.3431,3-3s-1.3431-3-3-3c-1.6569,0-3,1.3431-3,3S31.3431,164,33,164L33,164z M17,84c1.6569,0,3-1.3431,3-3
			s-1.3431-3-3-3s-3,1.3431-3,3S15.3431,84,17,84L17,84z M49,148c1.6569,0,3-1.3431,3-3s-1.3431-3-3-3s-3,1.3431-3,3
			S47.3431,148,49,148L49,148z M65,132c1.6569,0,3-1.3431,3-3c0-1.6569-1.3431-3-3-3s-3,1.3431-3,3C62,130.6569,63.3431,132,65,132
			L65,132z M34,39.7929V0h-2v40.5858L8.5858,64H0v2h7.7929h1.6213L34,41.4142V39.7929L34,39.7929L34,39.7929z M2,300.1V258h14v46h2
			v-47v-1H1H0v44.55v1.6207C0.3128,302.0602,0.6494,302,1,302c1.3062,0,2.4175,0.8348,2.8293,2H5.9
			C5.5023,302.0409,3.9591,300.4977,2,300.1L2,300.1L2,300.1z M34,241v63h-2v-62H0v-2h34V241L34,241L34,241z M17,18h1V0h-2v16H0v2
			H17L17,18L17,18z M290,16V0h-2v17v1h16v-2H290L290,16z M258,289v15h-2v-14h-14v14h-2v-16h1h17V289L258,289z M0,92.1
			C0.3231,92.0344,0.6575,92,1,92c2.7614,0,5,2.2386,5,5s-2.2386,5-5,5c-0.3425,0-0.6769-0.0344-1-0.1v-2.0707
			C0.3128,99.9398,0.6494,100,1,100c1.6569,0,3-1.3431,3-3s-1.3431-3-3-3c-0.3506,0-0.6872,0.0602-1,0.1707L0,92.1L0,92.1L0,92.1z
			 M80,272h2v32h-2V272L80,272z M117.9,304c-0.4633-2.2822-2.481-4-4.9-4s-4.4367,1.7178-4.9,4h2.0707
			c0.4118-1.1652,1.5231-2,2.8293-2s2.4175,0.8348,2.8293,2H117.9L117.9,304L117.9,304z M5.9,0C5.9656,0.3231,6,0.6575,6,1
			c0,2.7614-2.2386,5-5,5C0.6575,6,0.3231,5.9656,0,5.9V3.8293C0.3128,3.9398,0.6494,4,1,4c1.6569,0,3-1.3431,3-3
			c0-0.3506-0.0602-0.6872-0.1707-1L5.9,0L5.9,0L5.9,0z M300.1,0c-0.0656,0.3231-0.1,0.6575-0.1,1c0,2.419,1.7178,4.4367,4,4.9
			V3.8293c-1.1652-0.4118-2-1.5231-2-2.8293c0-0.3506,0.0602-0.6872,0.1707-1H300.1L300.1,0L300.1,0z M304,300.1
			c-1.9591,0.3977-3.5023,1.9409-3.9,3.9h2.0707c0.3013-0.8524,0.9769-1.528,1.8293-1.8293V300.1L304,300.1z"/>
	</g>
</g>
</svg>
