<?xml version="1.0" encoding="utf-8"?>
<!-- Generator: Adobe Illustrator 20.0.0, SVG Export Plug-In . SVG Version: 6.00 Build 0)  -->
<svg version="1.1" id="Layer_1" xmlns="http://www.w3.org/2000/svg" xmlns:xlink="http://www.w3.org/1999/xlink" x="0px" y="0px"
	 width="4px" height="7px" viewBox="0 0 4 7" enable-background="new 0 0 4 7" xml:space="preserve">
<rect fill="#121132" width="4" height="7"/>
<g>
	<g id="hexagons">
		<path fill="#171742" d="M1.9986,1.3214l1.8571,1.0714v2.1429L1.9986,5.6071L0.1429,4.5357V2.3929L1.9986,1.3214z M0.4286,2.5571
			v1.8143l1.57,0.9057L3.57,4.37V2.5571L1.9986,1.6514L0.4286,2.5571z M0,2.1429l1.8543-1.0714V0H1.5686v0.9071L0,1.8129v0.3286
			V2.1429z M0,4.7857l1.8543,1.0714V7H1.5686V6.0214L0,5.1157V4.7871V4.7857z M2.1429,0v1.0714l1.8557,1.0714H4v-0.33H3.9986
			l-1.57-0.9057V0H2.1429z M2.1429,7V5.8571l1.8557-1.0714H4v0.33H3.9986l-1.57,0.9057V7H2.1429z"/>
	</g>
</g>
</svg>
