<svg xmlns="http://www.w3.org/2000/svg" viewBox="0 0 17 17" height="17" width="17"><title>residential-community-11.svg</title><rect fill="none" x="0" y="0" width="17" height="17"></rect><path fill="#17ffdd" transform="translate(3 3)" d="M8.8,8C9.5,7.9,10,7.2,10,6.5C10,5.7,9.3,5,8.5,5S7,5.7,7,6.5C7,7.2,7.5,7.9,8.2,8v1.5H6.4H6V1H2v8.5H1V10h1h4.4h1.9h0.5H10
	V9.5H8.8V8z M3,2h2v1H3V2z M3,4h2v1H3V4z M3,6h2v1H3V6z" style="stroke-linejoin:round;stroke-miterlimit:4;" stroke="#17ffdd" stroke-width="2"></path><path fill="#121132" transform="translate(3 3)" d="M8.8,8C9.5,7.9,10,7.2,10,6.5C10,5.7,9.3,5,8.5,5S7,5.7,7,6.5C7,7.2,7.5,7.9,8.2,8v1.5H6.4H6V1H2v8.5H1V10h1h4.4h1.9h0.5H10
	V9.5H8.8V8z M3,2h2v1H3V2z M3,4h2v1H3V4z M3,6h2v1H3V6z"></path></svg>