<?xml version="1.0" encoding="utf-8"?>
<!-- Generator: Adobe Illustrator 20.0.0, SVG Export Plug-In . SVG Version: 6.00 Build 0)  -->
<svg version="1.1" id="Layer_1" xmlns="http://www.w3.org/2000/svg" xmlns:xlink="http://www.w3.org/1999/xlink" x="0px" y="0px"
	 width="100px" height="20px" viewBox="0 0 100 20" enable-background="new 0 0 100 20" xml:space="preserve">
<rect fill="#000011" width="100" height="20"/>
<title>bank-note</title>
<desc>Created with Sketch.</desc>
<g id="Page-1">
	<g id="bank-note">
		<path id="Combined-Shape" fill="#0A0A3F" d="M21.1841,20c0.357-0.1303,0.7196-0.2641,1.0883-0.4017
			c0.3623-0.1352,1.5981-0.5983,1.7675-0.6616C33.6397,15.3476,39.6469,14,50,14c10.2711,0,15.3618,1.2218,24.6286,4.9285
			c0.9557,0.3823,1.8693,0.7391,2.7502,1.0715h6.2252c-2.5109-0.7306-5.139-1.691-8.2326-2.9285C65.8882,13.2782,60.5622,12,50,12
			c-10.6259,0-16.8552,1.3974-26.6605,5.0633c-0.1706,0.0638-1.4057,0.5266-1.7663,0.6612
			c-2.4748,0.9234-4.6606,1.675-6.7238,2.2755H21.1841L21.1841,20z M21.1841,0C13.2575,2.8919,8.0767,4,0,4l0,0V2
			c5.7439,0,9.9514-0.5744,14.8494-2H21.1841L21.1841,0z M77.3788,0C85.2386,2.9664,90.5023,4,100,4V2
			c-6.8423,0-11.3856-0.5422-16.396-2L77.3788,0L77.3788,0z M0,14c8.4405,0,13.7183-1.2101,22.2724-4.4017
			C22.6346,9.4632,23.8705,9,24.0399,8.9367C33.6397,5.3476,39.6469,4,50,4c10.2711,0,15.3618,1.2218,24.6286,4.9285
			C84.1118,12.7218,89.4378,14,100,14v-2c-10.2711,0-15.3618-1.2218-24.6286-4.9285C65.8882,3.2782,60.5622,2,50,2
			C39.3741,2,33.1448,3.3974,23.3395,7.0633c-0.1706,0.0638-1.4057,0.5266-1.7663,0.6612C13.2235,10.8398,8.1635,12,0,12V14L0,14
			L0,14z"/>
	</g>
</g>
</svg>
